# xmcd
#
# Track frame offsets:
#	150
#	1432
#	29600
#	57996
#	60310
#	72070
#	80450
#	121136
#	124862
#	143266
#	173473
#	179419
#	182460
#	270566
#
# Disc length: 3620 seconds
# Revision: 0
# Processed by: cddbd v1.5.2PL0 Copyright (c) Steve Scherf et al.
# Submitted via: dBpowerAMP V12.0
#
DISCID=ae0e220e
DTITLE=Hale Dwoskin - The Inner Circle Retreat 03 CD 03
DYEAR=2007
DGENRE=Speech
TTITLE0=Intro Music
TTITLE1=Losing Your Boundaries - Loneliness
TTITLE2=Hypertension
TTITLE3=Participant Gain
TTITLE4=Wanting to Create a Problem
TTITLE5=No Need for External Confirmation
TTITLE6=Worrying about Your Children
TTITLE7=Participant Gain
TTITLE8=Wanting to Have Direction in Life
TTITLE9=Lost Her Purse
TTITLE10=The Core Desires
TTITLE11=Separation - Oneness
TTITLE12=Grief - Knowingness - Holding On to Memories
TTITLE13=Concluding Music
EXTD=
EXTT0=
EXTT1=
EXTT2=
EXTT3=
EXTT4=
EXTT5=
EXTT6=
EXTT7=
EXTT8=
EXTT9=
EXTT10=
EXTT11=
EXTT12=
EXTT13=
PLAYORDER=
